<svg width="36" height="36" viewBox="0 0 36 36" fill="none" xmlns="http://www.w3.org/2000/svg">
<path fill-rule="evenodd" clip-rule="evenodd" d="M23.25 4.125C24.6997 4.125 25.875 5.30025 25.875 6.75C25.875 8.19975 24.6997 9.375 23.25 9.375H19.512L20.5001 6.08148C20.8485 4.92024 21.9173 4.125 23.1297 4.125H23.25ZM28.125 6.75C28.125 7.71648 27.8438 8.61727 27.3586 9.375H28.5C30.7782 9.375 32.625 11.2218 32.625 13.5C32.625 15.3882 31.3564 16.98 29.625 17.4697V25.5V25.578C29.625 26.9257 29.6251 28.0496 29.5051 28.9417C29.3785 29.8834 29.1 30.7336 28.4168 31.4168C27.7336 32.1 26.8834 32.3785 25.9417 32.5051C25.0496 32.6251 23.9257 32.625 22.578 32.625H22.5H18H13.5H13.422C12.0743 32.625 10.9504 32.6251 10.0583 32.5051C9.11659 32.3785 8.26639 32.1 7.58318 31.4168C6.89998 30.7336 6.62147 29.8834 6.49487 28.9417C6.37492 28.0495 6.37495 26.9257 6.375 25.578L6.375 25.5V17.4697C4.64362 16.98 3.375 15.3882 3.375 13.5C3.375 11.2218 5.22183 9.375 7.5 9.375H8.64136C8.15625 8.61727 7.875 7.71648 7.875 6.75C7.875 4.05761 10.0576 1.875 12.75 1.875H12.8703C15.0763 1.875 17.0211 3.32199 17.655 5.43494L18 6.58488L18.345 5.43494C18.9789 3.32199 20.9237 1.875 23.1297 1.875H23.25C25.9424 1.875 28.125 4.05761 28.125 6.75ZM7.5 15.375H16.875V11.625H12.75H7.5C6.46447 11.625 5.625 12.4645 5.625 13.5C5.625 14.5355 6.46447 15.375 7.5 15.375ZM19.125 15.375H28.5C29.5355 15.375 30.375 14.5355 30.375 13.5C30.375 12.4645 29.5355 11.625 28.5 11.625H23.25H19.125V15.375ZM8.625 17.625V25.5C8.625 26.946 8.62739 27.9174 8.7248 28.6419C8.81787 29.3341 8.9787 29.6304 9.17417 29.8258C9.36965 30.0213 9.6659 30.1821 10.3581 30.2752C11.0826 30.3726 12.054 30.375 13.5 30.375H16.875V17.625H8.625ZM19.125 17.625V30.375H22.5C23.946 30.375 24.9174 30.3726 25.6419 30.2752C26.3341 30.1821 26.6304 30.0213 26.8258 29.8258C27.0213 29.6304 27.1821 29.3341 27.2752 28.6419C27.3726 27.9174 27.375 26.946 27.375 25.5V17.625H19.125ZM16.488 9.375L15.4999 6.08148C15.1515 4.92024 14.0827 4.125 12.8703 4.125H12.75C11.3003 4.125 10.125 5.30025 10.125 6.75C10.125 8.19975 11.3003 9.375 12.75 9.375H16.488Z" fill="#D8AE5F"/>
</svg>
