<svg width="36" height="36" viewBox="0 0 36 36" fill="none" xmlns="http://www.w3.org/2000/svg">
<path fill-rule="evenodd" clip-rule="evenodd" d="M21.075 9.59971C23.2001 8.00592 24.6925 6.89031 25.8569 6.25747C27.0287 5.62068 27.5238 5.66531 27.8385 5.82266C28.1532 5.98 28.486 6.34933 28.6796 7.66882C28.8697 8.96432 28.8749 10.7986 28.875 13.4041C28.875 13.4359 28.875 13.4677 28.875 13.4997L28.875 19.4997C28.875 19.5365 28.875 19.5732 28.875 19.6098C28.8749 22.2076 28.8694 24.0375 28.6796 25.3306C28.486 26.6501 28.1532 27.0194 27.8385 27.1768C27.5238 27.3341 27.0287 27.3787 25.8569 26.7419C24.6925 26.1091 23.2001 24.9935 21.075 23.3997L19.125 21.9372L19.125 11.0622L21.075 9.59971ZM31.1163 22.014C31.0996 23.4548 31.0503 24.6724 30.9058 25.6573C30.6848 27.1631 30.1884 28.5174 28.8448 29.1892C27.5011 29.8611 26.1198 29.4456 24.7826 28.7189C23.4555 27.9977 21.8316 26.7797 19.8053 25.2599L19.725 25.1997L17.6253 23.6249L14.625 23.6249L14.625 29.2501C14.625 31.1141 13.114 32.6251 11.25 32.6251C9.38604 32.6251 7.875 31.1141 7.875 29.2501L7.875 23.5366C4.47451 22.9972 1.875 20.0522 1.875 16.4999C1.875 12.5649 5.06497 9.37494 9 9.37494L17.6247 9.37494L19.725 7.79971L19.8053 7.73951L19.8053 7.73949L19.8053 7.73949L19.8053 7.73945C21.8317 6.21966 23.4555 5.00173 24.7826 4.28054C26.1198 3.55381 27.5011 3.13836 28.8448 3.81019C30.1884 4.48203 30.6848 5.8363 30.9058 7.34215C31.0503 8.32707 31.0996 9.54462 31.1163 10.9855C33.6882 11.5034 35.625 13.7754 35.625 16.4998C35.625 19.2241 33.6882 21.4962 31.1163 22.014ZM31.125 19.6827C32.4358 19.2194 33.375 17.9692 33.375 16.4998C33.375 15.0303 32.4358 13.7801 31.125 13.3168C31.125 13.3443 31.125 13.3718 31.125 13.3994L31.125 13.3994L31.125 13.4997L31.125 19.4997L31.125 19.6L31.125 19.6C31.125 19.6277 31.125 19.6552 31.125 19.6827ZM16.875 11.6249L9 11.6249C6.30761 11.6249 4.125 13.8075 4.125 16.4999C4.125 19.1923 6.30761 21.3749 9 21.3749L16.875 21.3749L16.875 11.6249ZM10.125 23.6251L10.125 29.2501C10.125 29.8714 10.6287 30.3751 11.25 30.3751C11.8713 30.3751 12.375 29.8714 12.375 29.2501L12.375 23.6251L10.125 23.6251Z" fill="#D8AE5F"/>
</svg>
