<svg width="36" height="36" viewBox="0 0 36 36" fill="none" xmlns="http://www.w3.org/2000/svg">
<path fill-rule="evenodd" clip-rule="evenodd" d="M8.19231 3.37492C8.2246 3.37494 8.25728 3.37495 8.29036 3.37495C8.32087 3.37495 8.35096 3.37494 8.38066 3.37493C8.87887 3.37471 9.26637 3.37454 9.62442 3.43772C10.9735 3.6758 12.1164 4.56815 12.6746 5.81926C12.8228 6.15128 12.9166 6.52725 13.0372 7.01063C13.0444 7.03945 13.0517 7.06866 13.0591 7.09826L13.6795 9.57996L13.6931 9.63419C13.9032 10.4746 14.0816 11.1879 14.1673 11.7922C14.2586 12.4356 14.2613 13.0502 14.0559 13.681C13.8506 14.3118 13.4866 14.807 13.034 15.2733C12.6089 15.7113 12.0448 16.1828 11.3802 16.7385L11.3373 16.7743L8.91891 18.7962C10.8739 22.3352 13.6646 25.126 17.2037 27.0809L19.2255 24.6626L19.2614 24.6197C19.817 23.955 20.2886 23.3909 20.7265 22.9658C21.1928 22.5133 21.6881 22.1493 22.3189 21.9439C22.9496 21.7386 23.5643 21.7412 24.2076 21.8325C24.8119 21.9183 25.5251 22.0966 26.3655 22.3067L26.4199 22.3203L28.9016 22.9408C28.9312 22.9482 28.9604 22.9554 28.9892 22.9626C29.4726 23.0833 29.8485 23.1771 30.1806 23.3252C31.4317 23.8834 32.324 25.0263 32.5621 26.3754C32.6253 26.7335 32.6251 27.121 32.6249 27.6192C32.6249 27.6489 32.6249 27.679 32.6249 27.7095C32.6249 27.7426 32.6249 27.7752 32.6249 27.8075C32.6252 28.3821 32.6255 28.8354 32.5257 29.2822C32.1625 30.9081 30.6575 32.2734 29.0039 32.477C28.5503 32.5329 28.1605 32.4946 27.6757 32.4471C27.6525 32.4448 27.6291 32.4426 27.6055 32.4402C23.646 32.0539 20.0825 31.0648 16.9786 29.5052C12.3674 27.1883 8.81157 23.6325 6.49464 19.0212C4.93507 15.9173 3.9459 12.3538 3.55959 8.39433C3.55728 8.37071 3.55499 8.34733 3.55272 8.32416C3.50519 7.8393 3.46698 7.44951 3.52283 6.9959C3.72641 5.34235 5.09171 3.83735 6.71768 3.47416C7.16445 3.37437 7.61779 3.37461 8.19231 3.37492ZM19.2864 28.0977C21.807 29.1779 24.6597 29.8921 27.824 30.2009C28.4037 30.2574 28.5473 30.2662 28.729 30.2439C29.4382 30.1566 30.174 29.489 30.3298 28.7917C30.3687 28.6175 30.3749 28.4271 30.3749 27.7095C30.3749 27.0785 30.3707 26.9044 30.3463 26.7664C30.2381 26.1532 29.8325 25.6337 29.2638 25.38C29.1359 25.3229 28.968 25.2766 28.3559 25.1236L25.8742 24.5031C24.9648 24.2758 24.3658 24.1275 23.8914 24.0602C23.4431 23.9966 23.2045 24.0218 23.0154 24.0834C22.8263 24.1449 22.6185 24.265 22.2936 24.5804C21.9498 24.9141 21.5529 25.3866 20.9517 26.1057L19.2864 28.0977ZM7.90215 16.7135L9.89409 15.0481C10.6132 14.4469 11.0858 14.05 11.4195 13.7062C11.7348 13.3813 11.8549 13.1735 11.9165 12.9844C11.978 12.7954 12.0033 12.5567 11.9397 12.1084C11.8723 11.634 11.724 11.035 11.4967 10.1257L10.8763 7.64396C10.7232 7.03185 10.6769 6.86395 10.6199 6.736C10.3661 6.16732 9.84664 5.7617 9.2334 5.65349C9.09543 5.62914 8.92131 5.62495 8.29036 5.62495C7.57272 5.62495 7.38231 5.63115 7.20817 5.67005C6.51083 5.82581 5.84328 6.56167 5.75596 7.27084C5.73359 7.45254 5.74239 7.59613 5.79895 8.17584C6.10769 11.3401 6.82192 14.1928 7.90215 16.7135Z" fill="#D8AE5F"/>
</svg>
