<svg width="36" height="36" viewBox="0 0 36 36" fill="none" xmlns="http://www.w3.org/2000/svg">
<path fill-rule="evenodd" clip-rule="evenodd" d="M22.5001 3.375H22.4221C21.0744 3.37496 19.9506 3.37492 19.0584 3.49487C18.1167 3.62148 17.2665 3.89998 16.5833 4.58319C15.9001 5.26639 15.6216 6.11659 15.495 7.05828C15.4076 7.70849 15.3839 8.48173 15.3775 9.375H9.39725L9.34579 9.375C8.56 9.37498 7.89133 9.37495 7.33576 9.42895C6.74384 9.48649 6.19477 9.61121 5.66629 9.91043C5.13781 10.2096 4.74837 10.6163 4.3945 11.0943C4.06236 11.5429 3.71835 12.1163 3.31409 12.7901L3.31409 12.7901L3.28761 12.8342L1.39047 15.9961L1.32816 16.0999C0.963436 16.7068 0.675344 17.1863 0.52478 17.7299C0.374215 18.2734 0.374584 18.8328 0.375051 19.5409L0.375104 19.6619V22.5V22.5379C0.375092 23.2046 0.375083 23.7611 0.406259 24.2181C0.438712 24.6937 0.508676 25.143 0.689101 25.5786C1.10776 26.5893 1.91079 27.3923 2.92153 27.811C3.35712 27.9914 3.80641 28.0614 4.28206 28.0938C4.46764 28.1065 4.66966 28.114 4.88882 28.1185C5.07717 30.6388 7.18168 32.625 9.7501 32.625C12.3163 32.625 14.4194 30.6422 14.6109 28.125H19.8893C20.0808 30.6422 22.1839 32.625 24.7501 32.625C27.3171 32.625 29.4207 30.641 29.6111 28.1227C30.5103 28.1165 31.2882 28.093 31.9418 28.0051C32.8835 27.8785 33.7337 27.6 34.4169 26.9168C35.1001 26.2336 35.3786 25.3834 35.5052 24.4417C35.6252 23.5496 35.6251 22.4257 35.6251 21.078V21V10.5V10.422C35.6251 9.07427 35.6252 7.95045 35.5052 7.05828C35.3786 6.11659 35.1001 5.26639 34.4169 4.58319C33.7337 3.89998 32.8835 3.62148 31.9418 3.49487C31.0497 3.37492 29.9258 3.37496 28.5781 3.375H28.5001H22.5001ZM15.3751 12V11.625H9.39725C8.54607 11.625 7.98734 11.6262 7.55343 11.6684C7.14377 11.7082 6.93414 11.7782 6.77486 11.8684C6.61559 11.9586 6.44773 12.1023 6.20282 12.4331C5.94341 12.7835 5.65489 13.262 5.21697 13.9918L3.48707 16.875H10.5001C11.9461 16.875 12.9175 16.8726 13.642 16.7752C14.3342 16.6821 14.6305 16.5213 14.8259 16.3258C15.0214 16.1304 15.1822 15.8341 15.2753 15.1419C15.3727 14.4174 15.3751 13.446 15.3751 12ZM17.6251 12L17.6251 12.078V12.078C17.6251 13.4257 17.6252 14.5496 17.5052 15.4417C17.3786 16.3834 17.1001 17.2336 16.4169 17.9168C15.7337 18.6 14.8835 18.8785 13.9418 19.0051C13.0497 19.1251 11.9258 19.125 10.5781 19.125L10.5001 19.125H2.62731C2.62565 19.2718 2.6251 19.4478 2.6251 19.6619V22.5C2.6251 23.2143 2.62571 23.6937 2.65104 24.0649C2.67568 24.426 2.71989 24.6018 2.76783 24.7175C2.95813 25.177 3.32314 25.542 3.78257 25.7323C3.8983 25.7802 4.07413 25.8244 4.43522 25.8491C4.65836 25.8643 4.92061 25.8706 5.24949 25.8732C5.9846 24.1124 7.72284 22.875 9.7501 22.875C11.7781 22.875 13.5168 24.1133 14.2515 25.875H20.2487C20.9834 24.1133 22.7221 22.875 24.7501 22.875C26.7778 22.875 28.5163 24.1129 29.2511 25.8742C30.295 25.8709 31.0507 25.8547 31.642 25.7752C32.3342 25.6821 32.6305 25.5213 32.8259 25.3258C33.0214 25.1304 33.1822 24.8341 33.2753 24.1419C33.3727 23.4174 33.3751 22.446 33.3751 21V10.5C33.3751 9.05399 33.3727 8.08265 33.2753 7.35809C33.1822 6.6659 33.0214 6.36965 32.8259 6.17418C32.6305 5.9787 32.3342 5.81787 31.642 5.7248C30.9175 5.62739 29.9461 5.625 28.5001 5.625H22.5001C21.0541 5.625 20.0827 5.62739 19.3582 5.7248C18.666 5.81787 18.3698 5.9787 18.1743 6.17418C17.9788 6.36965 17.818 6.6659 17.7249 7.35809C17.6275 8.08264 17.6251 9.05398 17.6251 10.5V12ZM9.7501 25.125C8.30036 25.125 7.1251 26.3003 7.1251 27.75C7.1251 29.1997 8.30036 30.375 9.7501 30.375C11.1999 30.375 12.3751 29.1997 12.3751 27.75C12.3751 26.3003 11.1999 25.125 9.7501 25.125ZM24.7501 25.125C23.3004 25.125 22.1251 26.3003 22.1251 27.75C22.1251 29.1997 23.3004 30.375 24.7501 30.375C26.1999 30.375 27.3751 29.1997 27.3751 27.75C27.3751 26.3003 26.1999 25.125 24.7501 25.125Z" fill="#D8AE5F"/>
</svg>
