<svg width="36" height="36" viewBox="0 0 36 36" fill="none" xmlns="http://www.w3.org/2000/svg">
<path fill-rule="evenodd" clip-rule="evenodd" d="M4.5 10.875C5.12132 10.875 5.625 11.3787 5.625 12V19.3202C6.38599 18.4522 7.3341 17.441 8.41989 16.4276C11.2548 13.7817 15.2852 10.875 19.5 10.875C25.2097 10.875 28.5347 13.7652 30.3838 16.6417C31.297 18.0622 31.8505 19.4742 32.1763 20.5268C32.3397 21.0549 32.4475 21.4978 32.5151 21.8131C32.5489 21.971 32.5727 22.0973 32.5885 22.1869C32.5964 22.2317 32.6023 22.2674 32.6064 22.2933L32.6113 22.3247L32.6128 22.3347L32.6133 22.3383L32.6135 22.3397C32.6136 22.3404 32.6137 22.3409 31.5 22.5L32.6137 22.3409C32.7016 22.956 32.2742 23.5259 31.6591 23.6137C31.0448 23.7015 30.4756 23.2752 30.3866 22.6614C30.3866 22.6612 30.3866 22.661 30.3865 22.6608L30.3864 22.6602L30.3864 22.6601L30.3863 22.6591L30.3843 22.6466C30.3821 22.6327 30.3783 22.6094 30.3727 22.5773C30.3613 22.5131 30.3427 22.4139 30.315 22.2846C30.2595 22.0257 30.1681 21.6483 30.0269 21.192C29.7433 20.2758 29.2655 19.0629 28.4912 17.8584C26.9653 15.4848 24.2903 13.125 19.5 13.125C16.2148 13.125 12.7452 15.4684 9.95511 18.0725C8.68703 19.256 7.6123 20.4429 6.82495 21.375H15C15.6213 21.375 16.125 21.8787 16.125 22.5C16.125 23.1214 15.6213 23.625 15 23.625H4.5C3.87868 23.625 3.375 23.1214 3.375 22.5V12C3.375 11.3787 3.87868 10.875 4.5 10.875Z" fill="#D8AE5F"/>
</svg>
